<?xml version="1.0" encoding="utf-8"?>
<!-- Generator: Adobe Illustrator 19.1.0, SVG Export Plug-In . SVG Version: 6.00 Build 0)  -->
<svg version="1.1" id="Layer_1" xmlns="http://www.w3.org/2000/svg" xmlns:xlink="http://www.w3.org/1999/xlink" x="0px" y="0px"
	 viewBox="0 0 121.6 39.1" enable-background="new 0 0 121.6 39.1" xml:space="preserve">
<path fill="#FFFFFF" d="M120.7,37.3c-0.4,0-0.8-0.3-0.8-0.8c0-0.4,0.3-0.8,0.8-0.8c0.4,0,0.7,0.3,0.7,0.8
	C121.5,37,121.1,37.3,120.7,37.3z"/>
<g>
	<g>
		<g>
			<rect x="76.1" fill="#231F20" width="0.5" height="39.1"/>
		</g>
	</g>
</g>
<g>
	<g>
		<path fill="#231F20" d="M16.4,17.6h-5.6v-5.5h5.6c0.6,0,1.1,0.5,1.1,1.1v3.3C17.5,17.1,17,17.6,16.4,17.6L16.4,17.6z M12.1,16.3
			h4.1v-2.9h-4.1V16.3L12.1,16.3z"/>
	</g>
	<g>
		<path fill="#231F20" d="M16.6,26.8h-5.8v-6.1h5.8c0.6,0,1.1,0.5,1.1,1.1v3.9C17.7,26.3,17.2,26.8,16.6,26.8L16.6,26.8z M12.1,25.5
			h4.3V22h-4.3V25.5L12.1,25.5z"/>
	</g>
	<polygon fill="#231F20" points="42,25.9 38.9,25.9 38.9,6.4 27.3,6.4 27.3,13 30.4,13 30.4,25.9 27.3,25.9 27.3,32.6 42,32.6 	"/>
	<path fill="#231F20" d="M68.8,15.3V13c0-3.7-3-6.6-6.6-6.6H49.4c-3.7,0-6.6,3-6.6,6.6v13c0,3.7,3,6.6,6.6,6.6h12.8
		c3.7,0,6.6-3,6.6-6.6v-8.8h0H58v4.7h2.2V25c0,0.5-0.4,0.9-0.9,0.9h-7.2c-0.5,0-0.9-0.4-0.9-0.9V13.9c0-0.5,0.4-0.9,0.9-0.9h7.2
		c0.5,0,0.9,0.4,0.9,0.9v1.4H68.8z"/>
	<path fill="#231F20" d="M18.3,7.7l0.7,0c2.9,0,5.3,2.4,5.3,5.3c0,4.7-4.5,5.8-4.5,5.8v0.7c0,0,5.4,1.2,5.4,6.2c0,3-2.5,5.5-5.5,5.5
		H1.3v-4h3.1V11.7H1.3v-4H18.3 M19,6.4H0V13h3.1v12.9H0v6.7h19.7c3.8,0,6.8-3.1,6.8-6.8c0-3.1-2.1-5.8-5-6.6v0
		c2.4-1,4.1-3.4,4.1-6.1C25.6,9.3,22.7,6.4,19,6.4L19,6.4L19,6.4z"/>
</g>
<g>
	<path fill="#231F20" d="M68.7,31.5c0-0.7,0.5-1.2,1.2-1.2c0.7,0,1.2,0.5,1.2,1.2s-0.5,1.2-1.2,1.2C69.2,32.7,68.7,32.2,68.7,31.5z
		 M70.9,31.5c0-0.6-0.4-1-1-1c-0.6,0-1,0.4-1,1c0,0.6,0.4,1,1,1C70.5,32.6,70.9,32.1,70.9,31.5z M69.4,30.8h0.5
		c0.3,0,0.5,0.1,0.5,0.4c0,0.2-0.1,0.3-0.3,0.4l0.3,0.5h-0.3l-0.3-0.5h-0.2c0,0,0,0.5,0,0.5c0,0-0.2,0-0.3,0
		C69.4,32.2,69.4,30.8,69.4,30.8z M69.9,31.5c0.2,0,0.3-0.1,0.3-0.2c0-0.1-0.1-0.2-0.3-0.2h-0.2v0.4H69.9z"/>
</g>
<path fill="#231F20" d="M120.7,35.6c-0.5,0-1,0.4-1,0.9c0,0.5,0.4,0.9,0.9,0.9c0.5,0,0.9-0.4,0.9-0.9
	C121.6,36.1,121.2,35.6,120.7,35.6z M120.7,37.3c-0.4,0-0.8-0.3-0.8-0.8c0-0.4,0.3-0.8,0.8-0.8c0.4,0,0.7,0.3,0.7,0.8
	C121.5,37,121.1,37.3,120.7,37.3z"/>
<g>
	<path fill="#231F20" d="M120.3,36h0.3c0.1,0,0.2,0,0.3,0c0.1,0,0.2,0.1,0.2,0.3c0,0.1,0,0.2-0.1,0.2c0,0-0.1,0.1-0.1,0.1l0,0
		l0.3,0.5h-0.2l-0.2-0.5h-0.1v0.5h-0.2V36z M120.6,36.5C120.6,36.5,120.7,36.5,120.6,36.5c0.2,0,0.2-0.1,0.2-0.2
		c0-0.1,0-0.1-0.1-0.1c0,0,0,0-0.1,0h-0.1v0.3H120.6z"/>
</g>
<path fill="#231F20" d="M117.9,1.5h-12.8h-1.2v1.2V11v1.2h1.2h1.2v5.9l-10.1-16l-0.3-0.5h-0.7H84.2h-1.2v1.2V11v1.2h1.2h1.2v14.7
	h-1.2h-1.2v1.2v8.3v1.2h1.2H97h1.2v-1.2v-8.3v-1.2H97h-1.2V21L106,37l0.3,0.5h0.7h10.9h1.2v-1.2v-8.3v-1.2h-1.2h-1.2V12.2h1.2h1.2
	V11V2.7V1.5H117.9z M118.6,2.7V11v0.7h-0.7h-1.7v15.6h1.7h0.7v0.7v8.3V37h-0.7H107h-0.4l-0.2-0.3l-11-17.3v8H97h0.7v0.7v8.3V37H97
	H84.2h-0.7v-0.7v-8.3v-0.7h0.7h1.7V11.7h-1.7h-0.7V11V2.7V2h0.7h10.9h0.4l0.2,0.3l11,17.3v-8h-1.7h-0.7V11V2.7V2h0.7h12.8h0.7V2.7z"
	/>
<path fill="#FFFFFF" d="M117.9,2h-12.8h-0.7v0.7V11v0.7h0.7h1.7v8l-11-17.3L95.5,2h-0.4H84.2h-0.7v0.7V11v0.7h0.7h1.7v15.6h-1.7
	h-0.7v0.7v8.3V37h0.7H97h0.7v-0.7v-8.3v-0.7H97h-1.7v-8l11,17.3l0.2,0.3h0.4h10.9h0.7v-0.7v-8.3v-0.7h-0.7h-1.7V11.7h1.7h0.7V11V2.7
	V2H117.9z M97,28.1L97,28.1v8.3H84.2v-8.3l0,0c0,0,1.8,0,2.4,0c0-0.8,0-16.3,0-17c-0.5,0-2.4,0-2.4,0V2.7h10.9l12.3,19.4
	c0,0,0-10.5,0-11.1c-0.5,0-2.4,0-2.4,0V2.7h12.8V11c0,0-1.8,0-2.4,0c0,0.8,0,16.3,0,17c0.5,0,2.4,0,2.4,0l0,0v8.3H107L94.7,16.9
	c0,0,0,10.5,0,11.1C95.2,28.1,97,28.1,97,28.1z"/>
<path fill="#231F20" d="M107.4,22.1L107.4,22.1L95.1,2.7H84.2V11c0,0,1.8,0,2.4,0c0,0.8,0,16.3,0,17l0,0c-0.5,0-2.4,0-2.4,0v8.3H97
	v-8.3c0,0-1.8,0-2.4,0l0,0c0-0.6,0-11.1,0-11.1L107,36.3h10.9v-8.3c0,0-1.8,0-2.4,0l0,0c0-0.8,0-16.3,0-17c0.5,0,2.4,0,2.4,0V2.7
	h-12.8V11c0,0,1.8,0,2.4,0C107.4,11.6,107.4,22.1,107.4,22.1z"/>
</svg>
