<?xml version="1.0" encoding="utf-8"?>
<!-- Generator: Adobe Illustrator 19.1.0, SVG Export Plug-In . SVG Version: 6.00 Build 0)  -->
<svg version="1.1" id="Layer_1" xmlns="http://www.w3.org/2000/svg" xmlns:xlink="http://www.w3.org/1999/xlink" x="0px" y="0px"
	 viewBox="0 0 119.1 39.1" enable-background="new 0 0 119.1 39.1" xml:space="preserve">
<rect x="44" y="0" fill="#231F20" width="0.5" height="39.1"/>
<path fill="#231F20" d="M92.7,25.9L92,25.9v6.9c0.3,0,0.4,0,0.8,0c1.3,0,1.8-0.7,2.3-2l0.3,0.1L95,33.4c-0.5-0.1-0.6-0.2-1.2-0.2
	h-3.3v-0.4l0.6-0.1v-6.9l-0.6-0.1v-0.4h2.2V25.9z"/>
<path fill="#231F20" d="M96.8,32.8l0.5,0.1v0.4h-1.7v-0.4l0.5-0.1V29c0-0.3-0.1-0.4-0.3-0.4c-0.1,0-0.1,0-0.2,0v-0.4l1.3-0.5V32.8z
	 M96.4,26.6c-0.3,0-0.5-0.3-0.5-0.6s0.2-0.6,0.6-0.6c0.3,0,0.5,0.3,0.5,0.6C96.9,26.3,96.7,26.6,96.4,26.6z"/>
<path fill="#231F20" d="M98.9,28.6c0.3-0.5,0.8-0.8,1.3-0.8c1.1,0,1.4,0.9,1.4,2.1v2.9l0.5,0.1v0.4h-1.7v-0.4l0.5-0.1v-2.9
	c0-1-0.3-1.5-0.9-1.5c-0.4,0-0.9,0.3-1.1,0.8v3.7l0.5,0.1v0.4h-1.7v-0.4l0.5-0.1v-3.3c0-0.7-0.1-0.9-0.4-0.9c0,0-0.1,0-0.1,0v-0.4
	l0.9-0.5C98.7,28,98.8,28.3,98.9,28.6z"/>
<path fill="#231F20" d="M104.2,33.5c-1.2,0-2-1.1-2-2.6c0-1.7,1-3.1,2.2-3.1c0.7,0,1.3,0.4,1.3,0.9c0,0.3-0.2,0.6-0.5,0.6
	c-0.3,0-0.5-0.3-0.6-0.6c-0.1-0.4-0.1-0.5-0.4-0.5c-0.7,0-1.2,0.9-1.2,2.1c0,1.4,0.7,2.4,1.6,2.4c0.4,0,0.7-0.2,1.1-0.9l0.2,0.2
	C105.5,33,104.9,33.5,104.2,33.5z"/>
<path fill="#231F20" d="M109.2,30.6c0,1.6-0.4,2.5-1.1,2.5c-0.8,0-1.2-0.8-1.2-2.5c0-1.4,0.5-2.3,1.2-2.3
	C108.8,28.2,109.2,29.1,109.2,30.6z M110.1,30.7c0-1.6-0.9-2.9-2-2.9c-1.2,0-2.1,1.3-2.1,2.8c0,1.6,0.9,2.9,2.1,2.9
	C109.1,33.5,110.1,32.2,110.1,30.7z"/>
<path fill="#231F20" d="M111.4,32.8l0.5,0.1v0.4h-1.8v-0.4l0.5-0.1v-6.3c0-0.5-0.1-0.7-0.3-0.7c-0.1,0-0.1,0-0.2,0v-0.4l1.3-0.6
	V32.8z"/>
<path fill="#231F20" d="M113.5,28.6c0.3-0.5,0.8-0.8,1.3-0.8c1.1,0,1.4,0.9,1.4,2.1v2.9l0.5,0.1v0.4H115v-0.4l0.5-0.1v-2.9
	c0-1-0.3-1.5-0.9-1.5c-0.4,0-0.9,0.3-1.1,0.8v3.7l0.5,0.1v0.4h-1.8v-0.4l0.5-0.1v-3.3c0-0.7-0.1-0.9-0.4-0.9c0,0-0.1,0-0.1,0v-0.4
	l0.9-0.5C113.4,28,113.5,28.3,113.5,28.6z"/>
<path fill="#231F20" d="M75.3,7.1v2.2c0,0.5,0,0.7,0.1,0.9c0.1,0.2,0.4,0.4,0.6,0.4c0.3,0,0.6-0.2,0.7-0.4c0.1-0.2,0.1-0.3,0.1-0.8
	V7.1h0.4v2.2c0,0.6,0,0.8-0.2,1c-0.2,0.4-0.5,0.5-1,0.5c-0.5,0-0.9-0.2-1.1-0.7c-0.1-0.2-0.1-0.4-0.1-0.9V7.1H75.3z"/>
<polygon fill="#231F20" points="80.3,10.8 79.9,10.8 78.2,7.8 78.2,10.8 77.8,10.8 77.8,7.1 78.2,7.1 79.9,10.1 79.9,7.1 80.3,7.1 
	"/>
<rect x="81.1" y="7.1" fill="#231F20" width="0.4" height="3.7"/>
<polygon fill="#231F20" points="83.3,10 84.4,7.1 84.7,7.1 83.4,10.8 83.2,10.8 82,7.1 82.4,7.1 "/>
<polygon fill="#231F20" points="86.8,8.7 86.8,9.1 85.7,9.1 85.7,10.4 86.9,10.4 86.9,10.8 85.3,10.8 85.3,7.1 86.8,7.1 86.8,7.4 
	85.7,7.4 85.7,8.7 "/>
<path fill="#231F20" d="M87.9,8.7V7.4h0.4c0.3,0,0.5,0.2,0.5,0.6c0,0.3-0.1,0.5-0.2,0.6c-0.1,0.1-0.2,0.1-0.4,0.1H87.9z M87.5,10.8
	h0.4V9.1h0.3l0.9,1.7h0.4L88.7,9c0.2-0.1,0.3-0.1,0.4-0.2c0.2-0.2,0.3-0.5,0.3-0.8c0-0.4-0.1-0.7-0.4-0.8c-0.1-0.1-0.3-0.1-0.6-0.1
	h-0.7V10.8z"/>
<path fill="#231F20" d="M91.3,7.8c-0.1-0.3-0.3-0.4-0.5-0.4c-0.3,0-0.4,0.2-0.4,0.6c0,0.3,0.1,0.4,0.5,0.7c0.3,0.2,0.4,0.3,0.5,0.5
	c0.1,0.2,0.2,0.4,0.2,0.6c0,0.6-0.4,1.1-1,1.1c-0.4,0-0.7-0.2-0.9-0.5L90,9.9c0.1,0.4,0.3,0.6,0.6,0.6c0.3,0,0.5-0.3,0.5-0.7
	c0-0.2-0.1-0.3-0.2-0.5c-0.1-0.1-0.1-0.1-0.4-0.3c-0.5-0.4-0.7-0.6-0.7-1.1c0-0.6,0.4-1,0.8-1c0.3,0,0.6,0.2,0.8,0.5L91.3,7.8z"/>
<rect x="92.2" y="7.1" fill="#231F20" width="0.4" height="3.7"/>
<polygon fill="#231F20" points="94.6,10.8 94.2,10.8 94.2,7.4 93.3,7.4 93.3,7.1 95.5,7.1 95.5,7.4 94.6,7.4 "/>
<polygon fill="#231F20" points="98.4,7.1 97.3,9.1 97.3,10.8 96.9,10.8 96.9,9.1 95.9,7.1 96.3,7.1 97.2,8.7 98,7.1 "/>
<path fill="#231F20" d="M105.4,7.4c0.6,0,1,0.6,1,1.6c0,1-0.4,1.6-1,1.6c-0.6,0-1-0.6-1-1.6C104.4,7.9,104.7,7.4,105.4,7.4z
	 M105.4,7c-0.9,0-1.5,0.7-1.5,1.9c0,0.7,0.1,1.1,0.4,1.5c0.3,0.3,0.6,0.4,1,0.4c0.4,0,0.8-0.2,1-0.4c0.3-0.3,0.4-0.8,0.4-1.5
	C106.8,7.7,106.3,7,105.4,7z"/>
<polygon fill="#231F20" points="108.9,8.7 108.9,9.1 108,9.1 108,10.8 107.6,10.8 107.6,7.1 109.1,7.1 109.1,7.4 108,7.4 108,8.7 
	"/>
<path fill="#CF2027" d="M58.7,6.8v0.5L59,7.3c1.3,0.3,1.5,0.3,1.5,1.9c0,0,0,8.7,0,9.4C60.2,18,53.4,6.8,53.4,6.8h-3.6v0.5l0.3,0
	c1.4,0.1,1.6,0.1,1.6,1.7v11.8c0,1.4-0.2,1.5-1.4,1.6l-0.5,0.1l0,0.1V23h5v-0.6l-0.6-0.1c-1.2-0.2-1.4-0.2-1.4-1.6c0,0,0-9.3,0-9.9
	c0.4,0.6,7.7,12.2,7.7,12.2h1.1V9.1c0-1.4,0.2-1.5,1.3-1.8l0.2-0.1V6.8H58.7z"/>
<path fill="#CF2027" d="M75.8,12.1c-1.1,0-2,0.4-2.7,1.4c0-0.6,0-7.8,0-7.8L73,5.7l-3,1.1v0.5l0.1,0c0.2-0.1,0.3-0.1,0.4-0.1
	c0.5,0,0.6,0.2,0.6,1.3v10.2c0,2.2-0.1,3-0.6,4.3l0,0.1l0.6,0.3c0,0,1.2-1.4,1.3-1.6c0.7,1.1,1.6,1.6,2.9,1.6c2.5,0,4.4-2.6,4.4-5.9
	C79.7,14.3,78.2,12.1,75.8,12.1z M75.1,22.3c-1.5,0-2-0.8-2-3.8c0,0,0-3.7,0-3.7c0.7-0.8,1.2-1.1,1.8-1.1c1.6,0,2.9,2,2.9,4.6
	C77.8,20.7,76.8,22.3,75.1,22.3z"/>
<path fill="#CF2027" d="M117.3,21.2L117.3,21.2c-0.4,0.5-0.5,0.6-0.7,0.6c-0.2,0-0.4-0.4-0.4-1v-5c0-1.3-0.2-2-0.9-2.5
	c-1.9-1.5-3.9-1.5-4.5-1.5c-1.9-0.1-6.7,2.6-8,5.8c0-1.8,0-1.7,0-12l-3,1.1v0.6l0.1,0c0.1,0,0.3-0.1,0.4-0.1c0.4,0,0.5,0.2,0.5,1.1
	c0,0,0,13.8,0,14c-0.2,0-1.1,0.2-1.1,0.2v0.6h4.1v-0.6c0,0-1-0.1-1.1-0.2c0-2.4,0.1-3,1.5-4.9c0.2,0.3,2.5,4.6,2.6,4.9
	c-0.2,0-1,0.1-1,0.1v0.7h4.5c0.4,0.2,0.8,0.2,1.2,0.2c1.2,0,2.3-0.7,2.9-1.8c0.1,1.2,0.7,1.8,1.6,1.8c0.5,0,1.2-0.5,1.9-1.5l0.1-0.1
	L117.3,21.2z M108.5,20.5c0,0.7,0.2,1.4,0.6,1.9c-0.1,0-0.2,0-0.3,0c-0.1-0.1-3.5-6.3-3.6-6.5c0.6-0.8,2.3-2.2,3.5-2.3
	c0.3,0,0.6-0.1,0.6,0c0.2,0.4,0.8,0.3,0.8,0.3c0.1,0,0.8,0.1,1.4-0.9c0,0,0-0.1,0.4-0.1c1.5,0,2.1,1.7,2.1,2.9
	C112.1,16.4,108.5,17.6,108.5,20.5z M114.2,20.6c-0.6,0.7-1.4,1.2-2,1.2c-1,0-1.7-0.8-1.7-1.9c0-2,2-2.7,3.6-3.2c0,0,0,0,0,0
	C114.2,17,114.2,20.5,114.2,20.6z"/>
<path fill="#CF2027" d="M70,20L70,20c-0.9,1.3-1.6,1.8-2.6,1.8c-1.6,0-2.9-1.4-3.3-3.5c0.2-0.1,6.5-1.7,6.5-1.7l0-0.1
	c-0.3-2.7-1.8-4.3-4-4.3c-2.5,0-4.5,2.7-4.5,6.1c0,3.1,1.9,5.3,4.6,5.3c1.7,0,3-0.9,3.9-2.8l0-0.1L70,20z M66.6,13.1
	c1,0,1.7,0.8,1.7,2c0,0.6-0.2,1-1.3,1.3c0,0-2.3,0.6-2.9,0.7C64.1,14.6,65,13.1,66.6,13.1z"/>
<path fill="#CF2027" d="M97.7,16.6c-2.4-1-2.5-1.2-2.5-2.1c0-0.7,0.7-1.3,1.5-1.4c0,0,0.7,0,0.8,0.3c0,0.1,0.3,1,1.4,0.8
	c0.5-0.1,0.7-0.6,0.7-0.9c0-0.6-0.8-1.3-1.9-1.3c-2.4,0-4.2,1.4-4.2,3.3c0,1.7,1.4,2.4,2.8,3c1.2,0.5,2.3,1.1,2.3,2.3
	c0,1-0.8,1.7-1.9,1.7c-1.1,0-1.4-0.5-1.5-1.3c-0.1-0.8-0.7-1-1.2-1c-0.6,0-1,0.4-1.1,1.1c0,0.2,0,0.2,0,0.3
	c-0.2,0.3-0.3,0.3-0.5,0.3c-0.2,0-0.4-0.4-0.4-1l0-4.9c0-1.3-0.2-2-0.9-2.5c-1.1-1-3.4-1.9-5.4-1.5c-1.1,0.2-2.8,1.5-3.6,3.7
	c-0.1-1.7-0.2-2.4-0.8-3.5l0-0.1l-2.1,1v0.4l0.2-0.1l0.1,0c0.6,0,0.9,0.8,0.9,2.6c0,0,0,6.2,0,6.4c-0.2,0-1.1,0.2-1.1,0.2V23h4.2
	v-0.6c0,0-1-0.1-1.2-0.2c0-0.2,0-2.5,0-2.5c0.3-5.2,1.4-5.7,1.9-6c0.4-0.3,1-0.3,1.1-0.2c0.2,0.4,0.8,0.3,0.8,0.3
	c0.1,0,0.8,0.1,1.4-0.9c0,0,0-0.1,0.4-0.1c1.5,0,2.1,1.7,2.1,2.9l0,0c0,0,0,0,0,0c-2.1,0.7-5.7,1.9-5.7,4.8c0,1.7,1.2,2.9,2.9,2.9
	c1.2,0,2.3-0.7,2.9-1.8c0.1,1.2,0.7,1.8,1.6,1.8c0.4,0,1-0.4,1.5-1.1c0.6,0.7,1.7,1.1,3.1,1.1c2.1,0,3.8-1.5,3.8-3.4
	C100.3,18.6,99.3,17.3,97.7,16.6z M90.1,20.6c-0.6,0.7-1.4,1.2-2,1.2c-1,0-1.7-0.8-1.7-1.9c0-2,2-2.7,3.6-3.2c0,0,0,0,0,0
	C90.1,17,90.1,20.5,90.1,20.6z"/>
<path fill="#CF2027" d="M97.7,16.6c-2.4-1-2.5-1.2-2.5-2.1c0-0.7,0.7-1.3,1.5-1.4c0,0,0.7,0,0.8,0.3c0,0.1,0.3,1,1.4,0.8
	c0.5-0.1,0.7-0.6,0.7-0.9c0-0.6-0.8-1.3-1.9-1.3c-2.4,0-4.2,1.4-4.2,3.3c0,1.7,1.4,2.4,2.8,3c1.2,0.5,2.3,1.1,2.3,2.3
	c0,1-0.8,1.7-1.9,1.7c-1.1,0-1.4-0.5-1.5-1.3c-0.1-0.8-0.7-1-1.2-1c-0.6,0-1,0.4-1.1,1.1c0,0.2,0,0.2,0,0.3
	c-0.2,0.3-0.3,0.3-0.5,0.3c-0.2,0-0.4-0.4-0.4-1l0-4.9c0-1.3-0.2-2-0.9-2.5c-1.1-1-3.4-1.9-5.4-1.5c-1.1,0.2-2.8,1.5-3.6,3.7
	c-0.1-1.7-0.2-2.4-0.8-3.5l0-0.1l-2.1,1v0.4l0.2-0.1l0.1,0c0.6,0,0.9,0.8,0.9,2.6c0,0,0,6.2,0,6.4c-0.2,0-1.1,0.2-1.1,0.2V23h4.2
	v-0.6c0,0-1-0.1-1.2-0.2c0-0.2,0-2.5,0-2.5c0.3-5.2,1.4-5.7,1.9-6c0.4-0.3,1-0.3,1.1-0.2c0.2,0.4,0.8,0.3,0.8,0.3
	c0.1,0,0.8,0.1,1.4-0.9c0,0,0-0.1,0.4-0.1c1.5,0,2.1,1.7,2.1,2.9l0,0c0,0,0,0,0,0c-2.1,0.7-5.7,1.9-5.7,4.8c0,1.7,1.2,2.9,2.9,2.9
	c1.2,0,2.3-0.7,2.9-1.8c0.1,1.2,0.7,1.8,1.6,1.8c0.4,0,1-0.4,1.5-1.1c0.6,0.7,1.7,1.1,3.1,1.1c2.1,0,3.8-1.5,3.8-3.4
	C100.3,18.6,99.3,17.3,97.7,16.6z M90.1,20.6c-0.6,0.7-1.4,1.2-2,1.2c-1,0-1.7-0.8-1.7-1.9c0-2,2-2.7,3.6-3.2c0,0,0,0,0,0
	C90.1,17,90.1,20.5,90.1,20.6z"/>
<path fill="#FFFFFF" d="M117.2,24.5c0,0.5,0.4,0.9,0.9,0.9c0.5,0,0.9-0.4,0.9-0.9c0-0.5-0.4-0.9-0.8-0.9
	C117.6,23.6,117.2,24,117.2,24.5"/>
<path fill="#231F20" d="M119.1,24.5c0,0.6-0.5,1-1,1c-0.6,0-1-0.5-1-1c0-0.6,0.5-1.1,1.1-1.1C118.6,23.4,119.1,23.9,119.1,24.5
	 M117.2,24.5c0,0.5,0.4,0.9,0.9,0.9c0.5,0,0.9-0.4,0.9-0.9c0-0.5-0.4-0.9-0.8-0.9C117.6,23.6,117.2,24,117.2,24.5 M117.7,23.8h0.3
	c0.1,0,0.2,0,0.3,0c0.1,0,0.2,0.1,0.2,0.3c0,0.2-0.1,0.3-0.3,0.3l0.3,0.6h-0.2l-0.3-0.5h-0.1v0.5h-0.2V23.8z M118,24.4
	c0.2,0,0.3-0.1,0.3-0.2c0-0.1-0.1-0.2-0.2-0.2H118h-0.1L118,24.4L118,24.4z"/>
<path fill="#FFFFFF" d="M37.6,37.3c-0.4,0-0.8-0.3-0.8-0.8c0-0.4,0.3-0.8,0.8-0.8c0.4,0,0.7,0.3,0.7,0.8
	C38.4,37,38.1,37.3,37.6,37.3z"/>
<path fill="#CF2027" d="M37.6,35.6c-0.5,0-1,0.4-1,0.9c0,0.5,0.4,0.9,0.9,0.9c0.5,0,0.9-0.4,0.9-0.9C38.6,36.1,38.2,35.6,37.6,35.6z
	 M37.6,37.3c-0.4,0-0.8-0.3-0.8-0.8c0-0.4,0.3-0.8,0.8-0.8c0.4,0,0.7,0.3,0.7,0.8C38.4,37,38.1,37.3,37.6,37.3z"/>
<g>
	<path fill="#CF2027" d="M37.3,36h0.3c0.1,0,0.2,0,0.3,0c0.1,0,0.2,0.1,0.2,0.3c0,0.1,0,0.2-0.1,0.2c0,0-0.1,0.1-0.1,0.1l0,0
		l0.3,0.5h-0.2l-0.2-0.5h-0.1v0.5h-0.2V36z M37.5,36.5C37.5,36.5,37.6,36.5,37.5,36.5c0.2,0,0.2-0.1,0.2-0.2c0-0.1,0-0.1-0.1-0.1
		c0,0,0,0-0.1,0h-0.1v0.3H37.5z"/>
</g>
<path fill="#CF2027" d="M34.8,1.5H22h-1.2v1.2V11v1.2H22h1.2v5.9l-10.1-16l-0.3-0.5h-0.7H1.2H0v1.2V11v1.2h1.2h1.2v14.7H1.2H0v1.2
	v8.3v1.2h1.2H14h1.2v-1.2v-8.3v-1.2H14h-1.2V21l10.1,16l0.3,0.5h0.7h10.9H36v-1.2v-8.3v-1.2h-1.2h-1.2V12.2h1.2H36V11V2.7V1.5H34.8z
	 M35.5,2.7V11v0.7h-0.7h-1.7v15.6h1.7h0.7v0.7v8.3v0.7h-0.7H23.9h-0.4l-0.2-0.3l-11-17.3v8H14h0.7v0.7v8.3v0.7H14H1.2H0.5v-0.7v-8.3
	v-0.7h0.7h1.7V11.7H1.2H0.5V11V2.7V2h0.7h10.9h0.4l0.2,0.3l11,17.3v-8H22h-0.7V11V2.7V2H22h12.8h0.7V2.7z"/>
<path fill="#FFFFFF" d="M34.8,2H22h-0.7v0.7V11v0.7H22h1.7v8l-11-17.3L12.5,2h-0.4H1.2H0.5v0.7V11v0.7h0.7h1.7v15.6H1.2H0.5v0.7v8.3
	v0.7h0.7H14h0.7v-0.7v-8.3v-0.7H14h-1.7v-8l11,17.3l0.2,0.3h0.4h10.9h0.7v-0.7v-8.3v-0.7h-0.7h-1.7V11.7h1.7h0.7V11V2.7V2H34.8z
	 M14,28.1L14,28.1v8.3H1.2v-8.3l0,0c0,0,1.8,0,2.4,0c0-0.8,0-16.3,0-17c-0.5,0-2.4,0-2.4,0V2.7h10.9l12.3,19.4c0,0,0-10.5,0-11.1
	c-0.5,0-2.4,0-2.4,0V2.7h12.8V11c0,0-1.8,0-2.4,0c0,0.8,0,16.3,0,17c0.5,0,2.4,0,2.4,0l0,0v8.3H23.9L11.6,16.9c0,0,0,10.5,0,11.1
	C12.1,28.1,14,28.1,14,28.1z"/>
<path fill="#CF2027" d="M24.4,22.1L24.4,22.1L12.1,2.7H1.2V11c0,0,1.8,0,2.4,0c0,0.8,0,16.3,0,17l0,0c-0.5,0-2.4,0-2.4,0v8.3H14
	v-8.3c0,0-1.8,0-2.4,0l0,0c0-0.6,0-11.1,0-11.1l12.3,19.4h10.9v-8.3c0,0-1.8,0-2.4,0l0,0c0-0.8,0-16.3,0-17c0.5,0,2.4,0,2.4,0V2.7
	H22V11c0,0,1.8,0,2.4,0C24.4,11.6,24.4,22.1,24.4,22.1z"/>
</svg>
