<?xml version="1.0" encoding="UTF-8" standalone="no"?>
<!DOCTYPE svg PUBLIC "-//W3C//DTD SVG 1.1//EN" "http://www.w3.org/Graphics/SVG/1.1/DTD/svg11.dtd">
<svg version="1.1" xmlns="http://www.w3.org/2000/svg" xmlns:xlink="http://www.w3.org/1999/xlink" preserveAspectRatio="xMidYMid meet" viewBox="0 0 640 640" width="640" height="640"><defs><path d="M116.46 114.43C122.03 115.46 127.18 118.09 131.27 122.01C133.15 123.81 132.1 122.8 133.87 124.5C138.28 128.72 141.23 134.24 142.29 140.26C142.82 143.26 142.55 141.73 143.03 144.41C144.3 151.62 144.91 158.94 144.86 166.27C144.84 169.33 144.78 176.98 144.7 189.21L145.02 261C145.48 271.17 145.76 277.53 145.87 280.07C145.87 280.07 146.46 288.69 146.46 288.69C146.68 291.16 146.71 291.47 146.87 293.24C146.87 293.24 149.31 308.6 149.31 308.6C150.26 312.8 150.02 311.73 150.63 314.42C152.94 324.54 155.98 334.49 159.73 344.17C160.29 345.6 157 337.13 157.73 339.01C160.91 347.2 164.66 355.15 168.96 362.81C169.3 363.41 170.14 364.91 171.49 367.32L174.99 373.14L179.69 379.98L186.44 387.69L191.76 392.76L196.24 396.08L202.75 400.91L207.53 403.64L211.84 405.59L217.22 408.03L223.73 410.98L229.42 413.56L232.77 414.71L236.21 415.87L239.18 416.83L242.46 418.23L245 419.18L246.3 419.8L248.77 420.68L253.38 422.18L257.48 423.23L260.88 423.86L263.74 424.48L268.16 425.44L292.5 431L292.5 480.27L292.5 501L292.5 515.02C292.74 518.36 292.74 522.02 292.5 526C292.33 528.75 292.03 531.72 291.6 534.92C291.24 537.56 290.59 540.15 289.68 542.65C288.89 544.82 288.48 545.93 288.46 546C288.44 546.1 287.95 547.02 287 548.78C284.41 553.56 281.05 557.87 277.03 561.54C274.88 563.5 273.61 564.66 271.24 566.83C268.05 569.74 263.88 571.33 259.57 571.27C256.63 571.24 249.27 571.15 237.5 571L237.5 586.89L407.5 586.89L407.5 571C395.2 571 387.52 571 384.44 571C379.99 571 375.7 569.28 372.49 566.2C370.36 564.16 369.68 563.51 367.72 561.63C363.83 557.9 360.59 553.56 358.12 548.77C357.93 548.4 357.45 547.48 356.69 546C356.37 545.01 356.17 544.4 356.09 544.15C355.04 540.94 354.26 537.64 353.75 534.3C353.5 532.64 353.63 533.47 353.41 532C352.8 528.01 352.5 523.97 352.5 519.93C352.5 519.3 352.5 517.72 352.5 515.19L352.5 501L352.5 480.05L352.5 431C360.89 429.26 366.13 428.18 368.22 427.74C388.34 423.57 407.96 417.31 426.76 409.05C427.24 408.84 428.43 408.32 430.33 407.49L443.27 400.53C447.71 397.51 450.48 395.63 451.59 394.88C452.56 394.22 453.47 393.47 454.3 392.65C455.84 391.13 454.92 392.04 455.39 391.58C459.8 387.25 463.86 382.58 467.54 377.62C468.2 376.72 467.59 377.55 468.98 375.67C468.98 375.67 472.37 370.38 472.37 370.38C474.67 366.19 476.06 363.66 477.36 361.29C481.7 353.39 485.28 345.1 488.07 336.54C488.57 335 486.9 340.12 487.66 337.79C487.66 337.79 492.45 319.65 492.45 319.65C493.22 315.92 493.81 313.04 494.61 309.08C494.61 309.08 497.08 292.79 497.08 292.79C497.21 291.46 497.54 288.13 498.07 282.81C498.77 276.48 499.21 272.52 499.38 270.94C499.38 270.94 500.35 253.39 500.35 253.39C500.35 244.77 500.35 223.22 500.35 188.74L500.59 165.74C500.66 161.28 500.71 158.49 500.72 157.37C500.79 153.13 501.31 148.92 502.27 144.8C502.94 141.89 502.42 144.14 502.82 142.42C504.66 134.49 508.86 127.3 514.85 121.79C515.98 120.75 514.26 122.33 516.41 120.35C519.08 117.9 522.39 116.26 525.96 115.63C527.27 115.4 526.33 115.56 527.78 115.31C527.78 115.31 537.28 114.15 537.28 114.15C542.97 113.76 557.22 112.8 580 111.26L580 87.25C551.67 91.53 529.17 93.67 512.5 93.67C500.65 93.67 489.71 96.1 479.68 100.97C471.75 104.83 465.19 111.01 460.87 118.7C459.25 121.58 460.16 119.95 458.33 123.22C454.66 129.76 451.96 136.8 450.3 144.11C450.14 144.86 449.71 146.73 449.04 149.72C448.6 151.84 448.33 153.17 448.22 153.7C446.81 160.62 445.9 167.63 445.51 174.68C445.37 177.2 445.02 183.48 444.47 193.55L443.49 212.16L443.27 224.23L442.87 269.59L442.48 290.32C442.3 294.38 442.19 296.91 442.15 297.92C442.15 297.92 441.33 311.42 441.33 311.42C441.27 312.22 441.12 314.21 440.88 317.4C440.65 320.22 440.5 321.98 440.44 322.69C440.44 322.69 439.42 331.79 439.42 331.79C439.12 333.93 439.09 334.07 438.85 335.78C438.85 335.78 436.06 348.98 436.06 348.98C435.77 350.03 435.02 352.66 433.83 356.88C433.37 358.05 433.08 358.78 432.96 359.07C430.97 364.07 428.52 368.87 425.65 373.41C425.04 374.37 425.44 373.74 424.31 375.53C423.18 377.31 421.88 378.97 420.42 380.48C419.15 381.79 419.98 380.93 419.32 381.61C415.83 385.22 412.06 388.54 408.04 391.54C407.4 392.01 405.81 393.2 403.27 395.09L394.42 399.67L383.37 404.31L372.49 407.05C371.26 407.38 370.5 407.59 370.19 407.67C366.04 408.78 361.8 409.55 357.52 409.94C356.85 410 355.18 410.16 352.5 410.41L352.5 154.77C352.5 152.71 352.5 151.42 352.5 150.9C352.5 144.33 353.42 137.8 355.22 131.48C355.68 129.88 355.18 131.62 355.85 129.27C356.93 125.49 358.96 122.04 361.74 119.26C362.9 118.1 362.17 118.83 363.34 117.66C366.05 114.95 369.5 113.08 373.26 112.29C376.11 111.69 375.26 111.87 377.2 111.46C384.05 110.02 391.02 109.25 398.02 109.16C398.62 109.15 400.11 109.14 402.5 109.1L402.5 86L242.5 86L242.5 108.5C245.28 108.61 247.01 108.67 247.7 108.7C254.22 108.95 260.7 109.78 267.07 111.19C269.16 111.65 268.46 111.5 271.2 112.11C275.31 113.02 279.08 115.08 282.07 118.07C283.15 119.15 282.55 118.55 283.81 119.81C286.24 122.24 288.04 125.21 289.07 128.47C289.86 130.98 289.52 129.89 290.02 131.49C292.02 137.79 293.07 144.36 293.13 150.98C293.14 151.57 293.15 153.04 293.17 155.4L292.5 410.11L283.28 408.73L276.33 407.49L265.8 404.7L259.64 402.79L256.02 401.42L248.28 397.7L239.52 392.76C237.1 390.83 235.58 389.63 234.97 389.15C234.97 389.15 232.04 386.67 232.04 386.67C231.17 385.89 231.82 386.47 231.4 386.1C228.93 383.87 226.7 381.37 224.76 378.66C224.07 377.7 222.35 375.3 219.6 371.45C216.44 366.23 213.92 360.64 212.03 354.68C210.99 351.41 209.38 344.04 208.64 341.29C207.77 338.04 207.33 333.83 206.85 331.48C206.76 331 205.83 322.01 205.74 321.53C205.46 320.08 205.16 315.24 204.84 307L204.43 291.89L203.84 264.07L203.66 251.24C203.66 256.91 203.66 259.74 203.66 259.74C203.71 257.35 203.66 250.83 203.66 249.39C203.66 248.1 203.72 242.61 203.66 240.49C203.62 238.69 203.98 223.5 203.83 211.89C203.69 200.28 203.85 208.35 203.09 194.05C202.77 187.96 202.28 181.6 201.61 174.96C201.61 174.96 197.94 153.63 197.94 153.63C197.81 153.09 197.48 151.74 196.96 149.59C196.31 146.89 195.91 145.2 195.74 144.53C193.79 136.35 190.53 128.54 186.1 121.4C184.3 118.5 185.45 120.34 183.61 117.38C179.34 110.51 173.33 104.9 166.17 101.13C155.98 95.76 144.76 93.07 132.5 93.07C115.83 93.07 91.67 90.83 60 86.34L60 113.03C86.56 113.38 103.16 113.59 109.8 113.68C111.6 113.7 113.39 113.87 115.15 114.2C117.12 114.56 115.67 114.29 116.46 114.43Z" id="a5BAptIEP"></path><path d="M116.46 113.17C122.03 114.19 127.18 116.83 131.27 120.75C133.15 122.54 132.1 121.53 133.87 123.23C138.28 127.46 141.23 132.98 142.29 139C142.82 142 142.55 140.46 143.03 143.15C144.3 150.36 144.91 157.68 144.86 165C144.84 168.06 144.78 175.71 144.7 187.95L145.02 259.74C145.48 269.91 145.76 276.27 145.87 278.81C145.87 278.81 146.46 287.43 146.46 287.43C146.68 289.89 146.71 290.21 146.87 291.98C146.87 291.98 149.31 307.34 149.31 307.34C150.26 311.54 150.02 310.47 150.63 313.15C152.94 323.28 155.98 333.22 159.73 342.91C160.29 344.34 157 335.87 157.73 337.74C160.91 345.93 164.66 353.89 168.96 361.55C169.3 362.15 170.14 363.65 171.49 366.05L174.99 371.88L179.69 378.72L186.44 386.43L191.76 391.49L196.24 394.82L202.75 399.64L207.53 402.37L211.84 404.33L217.22 406.77L223.73 409.72L229.42 412.3L232.77 413.45L236.21 414.61L239.18 415.57L242.46 416.97L245 417.92L246.3 418.54L248.77 419.41L253.38 420.91L257.48 421.97L260.88 422.6L263.74 423.22L268.16 424.18L292.5 429.74L292.5 479.01L292.5 499.74L292.5 513.75C292.74 517.1 292.74 520.76 292.5 524.74C292.33 527.49 292.03 530.46 291.6 533.66C291.24 536.3 290.59 538.89 289.68 541.39C288.89 543.55 288.48 544.67 288.46 544.74C288.44 544.84 287.95 545.76 287 547.52C284.41 552.3 281.05 556.61 277.03 560.27C274.88 562.24 273.61 563.4 271.24 565.57C268.05 568.48 263.88 570.06 259.57 570.01C256.63 569.97 249.27 569.88 237.5 569.74L237.5 585.63L407.5 585.63L407.5 569.74C395.2 569.74 387.52 569.74 384.44 569.74C379.99 569.74 375.7 568.02 372.49 564.93C370.36 562.89 369.68 562.24 367.72 560.37C363.83 556.64 360.59 552.29 358.12 547.5C357.93 547.14 357.45 546.21 356.69 544.74C356.37 543.75 356.17 543.14 356.09 542.89C355.04 539.68 354.26 536.38 353.75 533.04C353.5 531.38 353.63 532.21 353.41 530.74C352.8 526.74 352.5 522.71 352.5 518.67C352.5 518.03 352.5 516.45 352.5 513.93L352.5 499.74L352.5 478.79L352.5 429.74C360.89 428 366.13 426.91 368.22 426.48C388.34 422.31 407.96 416.05 426.76 407.79C427.24 407.58 428.43 407.06 430.33 406.22L443.27 399.27C447.71 396.25 450.48 394.37 451.59 393.61C452.56 392.95 453.47 392.21 454.3 391.39C455.84 389.87 454.92 390.78 455.39 390.32C459.8 385.99 463.86 381.32 467.54 376.36C468.2 375.46 467.59 376.29 468.98 374.41C468.98 374.41 472.37 369.12 472.37 369.12C474.67 364.93 476.06 362.4 477.36 360.03C481.7 352.13 485.28 343.84 488.07 335.27C488.57 333.74 486.9 338.85 487.66 336.53C487.66 336.53 492.45 318.39 492.45 318.39C493.22 314.66 493.81 311.78 494.61 307.82C494.61 307.82 497.08 291.53 497.08 291.53C497.21 290.2 497.54 286.87 498.07 281.55C498.77 275.22 499.21 271.26 499.38 269.68C499.38 269.68 500.35 252.13 500.35 252.13C500.35 243.51 500.35 221.96 500.35 187.48L500.59 164.48C500.66 160.01 500.71 157.22 500.72 156.11C500.79 151.87 501.31 147.66 502.27 143.53C502.94 140.62 502.42 142.88 502.82 141.16C504.66 133.23 508.86 126.03 514.85 120.52C515.98 119.49 514.26 121.07 516.41 119.09C519.08 116.64 522.39 115 525.96 114.37C527.27 114.14 526.33 114.3 527.78 114.04C527.78 114.04 537.28 112.89 537.28 112.89C542.97 112.5 557.22 111.54 580 110L580 85.98C551.67 90.26 529.17 92.4 512.5 92.4C500.65 92.4 489.71 94.84 479.68 99.71C471.75 103.56 465.19 109.75 460.87 117.44C459.25 120.32 460.16 118.69 458.33 121.96C454.66 128.5 451.96 135.53 450.3 142.85C450.14 143.6 449.71 145.47 449.04 148.46C448.6 150.58 448.33 151.9 448.22 152.43C446.81 159.35 445.9 166.37 445.51 173.42C445.37 175.93 445.02 182.22 444.47 192.29L443.49 210.9L443.27 222.97L442.87 268.33L442.48 289.06C442.3 293.11 442.19 295.65 442.15 296.66C442.15 296.66 441.33 310.16 441.33 310.16C441.27 310.95 441.12 312.95 440.88 316.14C440.65 318.96 440.5 320.72 440.44 321.43C440.44 321.43 439.42 330.53 439.42 330.53C439.12 332.67 439.09 332.81 438.85 334.52C438.85 334.52 436.06 347.72 436.06 347.72C435.77 348.77 435.02 351.4 433.83 355.61C433.37 356.78 433.08 357.51 432.96 357.81C430.97 362.8 428.52 367.61 425.65 372.15C425.04 373.11 425.44 372.48 424.31 374.27C423.18 376.05 421.88 377.71 420.42 379.22C419.15 380.53 419.98 379.67 419.32 380.35C415.83 383.95 412.06 387.27 408.04 390.27C407.4 390.75 405.81 391.93 403.27 393.83L394.42 398.41L383.37 403.05L372.49 405.79C371.26 406.12 370.5 406.32 370.19 406.41C366.04 407.52 361.8 408.28 357.52 408.68C356.85 408.74 355.18 408.9 352.5 409.14L352.5 153.51C352.5 151.45 352.5 150.16 352.5 149.64C352.5 143.07 353.42 136.53 355.22 130.22C355.68 128.62 355.18 130.35 355.85 128.01C356.93 124.22 358.96 120.78 361.74 117.99C362.9 116.84 362.17 117.57 363.34 116.4C366.05 113.68 369.5 111.82 373.26 111.03C376.11 110.43 375.26 110.61 377.2 110.2C384.05 108.76 391.02 107.99 398.02 107.9C398.62 107.89 400.11 107.87 402.5 107.84L402.5 84.74L242.5 84.74L242.5 107.24C245.28 107.34 247.01 107.41 247.7 107.44C254.22 107.69 260.7 108.52 267.07 109.93C269.16 110.39 268.46 110.24 271.2 110.84C275.31 111.75 279.08 113.82 282.07 116.8C283.15 117.89 282.55 117.29 283.81 118.55C286.24 120.97 288.04 123.94 289.07 127.21C289.86 129.72 289.52 128.63 290.02 130.22C292.02 136.53 293.07 143.1 293.13 149.72C293.14 150.3 293.15 151.78 293.17 154.14L292.5 408.85L283.28 407.46L276.33 406.22L265.8 403.44L259.64 401.53L256.02 400.16L248.28 396.44L239.52 391.49C237.1 389.57 235.58 388.37 234.97 387.89C234.97 387.89 232.04 385.41 232.04 385.41C231.17 384.62 231.82 385.21 231.4 384.83C228.93 382.6 226.7 380.11 224.76 377.4C224.07 376.44 222.35 374.04 219.6 370.19C216.44 364.97 213.92 359.38 212.03 353.42C210.99 350.14 209.38 342.78 208.64 340.03C207.77 336.78 207.33 332.57 206.85 330.22C206.76 329.74 205.83 320.75 205.74 320.27C205.46 318.82 205.16 313.98 204.84 305.74L204.43 290.63L203.84 262.81L203.66 249.98C203.66 255.65 203.66 258.48 203.66 258.48C203.71 256.09 203.66 249.57 203.66 248.12C203.66 246.84 203.72 241.35 203.66 239.23C203.62 237.43 203.98 222.24 203.83 210.63C203.69 199.02 203.85 207.09 203.09 192.79C202.77 186.7 202.28 180.34 201.61 173.7C201.61 173.7 197.94 152.36 197.94 152.36C197.81 151.83 197.48 150.48 196.96 148.33C196.31 145.63 195.91 143.94 195.74 143.27C193.79 135.09 190.53 127.28 186.1 120.13C184.3 117.23 185.45 119.08 183.61 116.12C179.34 109.25 173.33 103.64 166.17 99.87C155.98 94.49 144.76 91.81 132.5 91.81C115.83 91.81 91.67 89.56 60 85.08L60 111.77C86.56 112.11 103.16 112.33 109.8 112.41C111.6 112.44 113.39 112.61 115.15 112.93C117.12 113.29 115.67 113.03 116.46 113.17Z" id="d5kgJX5IKq"></path><path d="M127.72 290C119.46 299.13 114.29 304.83 112.23 307.11C87.26 334.69 43.62 333.65 19.99 304.92C18.35 302.93 14.26 297.95 7.72 290" id="bb57ufYDgO"></path><path d="M39.08 206.65L10 290L68.16 290L126.31 290L97.24 206.65L68.16 123.31L39.08 206.65Z" id="gomyCipTl"></path><path d="M633.46 290C625.2 299.13 620.03 304.83 617.97 307.11C592.99 334.69 549.36 333.65 525.73 304.92C524.09 302.93 520 297.95 513.46 290" id="a7zALRnQ1"></path><path d="M543.77 206.65L514.69 290L572.84 290L631 290L601.92 206.65L572.84 123.31L543.77 206.65Z" id="f4lbQyIhM"></path></defs><g><g><g><use xlink:href="#a5BAptIEP" opacity="1" fill="#d00000" fill-opacity="1"></use><g><use xlink:href="#a5BAptIEP" opacity="1" fill-opacity="0" stroke="#d00000" stroke-width="15" stroke-opacity="1"></use></g></g><g><use xlink:href="#d5kgJX5IKq" opacity="1" fill="#d00000" fill-opacity="1"></use><g><use xlink:href="#d5kgJX5IKq" opacity="1" fill-opacity="0" stroke="#fefdfa" stroke-width="5" stroke-opacity="1"></use></g></g><g><use xlink:href="#bb57ufYDgO" opacity="1" fill="#d00000" fill-opacity="1"></use><g><use xlink:href="#bb57ufYDgO" opacity="1" fill-opacity="0" stroke="#d00000" stroke-width="2" stroke-opacity="1"></use></g></g><g><g><use xlink:href="#gomyCipTl" opacity="1" fill-opacity="0" stroke="#d00000" stroke-width="3" stroke-opacity="1"></use></g></g><g><use xlink:href="#a7zALRnQ1" opacity="1" fill="#d00000" fill-opacity="1"></use><g><use xlink:href="#a7zALRnQ1" opacity="1" fill-opacity="0" stroke="#d00000" stroke-width="2" stroke-opacity="1"></use></g></g><g><g><use xlink:href="#f4lbQyIhM" opacity="1" fill-opacity="0" stroke="#d00000" stroke-width="3" stroke-opacity="1"></use></g></g></g></g></svg>