<?xml version="1.0" encoding="utf-8"?>
<!-- Generator: Adobe Illustrator 19.1.0, SVG Export Plug-In . SVG Version: 6.00 Build 0)  -->
<svg version="1.1" id="Layer_1" xmlns="http://www.w3.org/2000/svg" xmlns:xlink="http://www.w3.org/1999/xlink" x="0px" y="0px"
	 viewBox="0 0 121.3 39.1" enable-background="new 0 0 121.3 39.1" xml:space="preserve">
<g>
	<g>
		<g>
			<rect x="73.9" fill="#231F20" width="0.5" height="39.1"/>
		</g>
	</g>
</g>
<path fill="#231F20" d="M42.9,25.9l-0.7,0.1v6.9c0.3,0,0.4,0,0.8,0c1.3,0,1.8-0.7,2.3-2l0.3,0.1l-0.5,2.5c-0.5-0.1-0.6-0.2-1.2-0.2
	h-3.3v-0.4l0.6-0.1v-6.9l-0.6-0.1v-0.4h2.2V25.9z"/>
<path fill="#231F20" d="M46.9,32.8l0.5,0.1v0.4h-1.7v-0.4l0.5-0.1V29c0-0.3-0.1-0.4-0.3-0.4c-0.1,0-0.1,0-0.2,0v-0.4l1.3-0.5V32.8z
	 M46.6,26.6c-0.3,0-0.5-0.3-0.5-0.6s0.2-0.6,0.6-0.6c0.3,0,0.5,0.3,0.5,0.6C47.1,26.3,46.8,26.6,46.6,26.6z"/>
<path fill="#231F20" d="M49,28.6c0.3-0.5,0.8-0.8,1.3-0.8c1.1,0,1.4,0.9,1.4,2.1v2.9l0.5,0.1v0.4h-1.7v-0.4l0.5-0.1v-2.9
	c0-1-0.3-1.5-0.9-1.5c-0.4,0-0.9,0.3-1.1,0.8v3.7l0.5,0.1v0.4h-1.7v-0.4l0.5-0.1v-3.3c0-0.7-0.1-0.9-0.4-0.9c0,0-0.1,0-0.1,0v-0.4
	l0.9-0.5C48.9,28,49,28.3,49,28.6z"/>
<path fill="#231F20" d="M54.3,33.5c-1.2,0-2-1.1-2-2.6c0-1.7,1-3.1,2.2-3.1c0.7,0,1.3,0.4,1.3,0.9c0,0.3-0.2,0.6-0.5,0.6
	c-0.3,0-0.5-0.3-0.6-0.6c-0.1-0.4-0.1-0.5-0.4-0.5c-0.7,0-1.2,0.9-1.2,2.1c0,1.4,0.7,2.4,1.6,2.4c0.4,0,0.7-0.2,1.1-0.9l0.2,0.2
	C55.6,33,55,33.5,54.3,33.5z"/>
<path fill="#231F20" d="M59.4,30.6c0,1.6-0.4,2.5-1.1,2.5c-0.8,0-1.2-0.8-1.2-2.5c0-1.4,0.5-2.3,1.2-2.3
	C58.9,28.2,59.4,29.1,59.4,30.6z M60.3,30.7c0-1.6-0.9-2.9-2-2.9c-1.2,0-2.1,1.3-2.1,2.8c0,1.6,0.9,2.9,2.1,2.9
	C59.3,33.5,60.3,32.2,60.3,30.7z"/>
<path fill="#231F20" d="M61.6,32.8l0.5,0.1v0.4h-1.8v-0.4l0.5-0.1v-6.3c0-0.5-0.1-0.7-0.3-0.7c-0.1,0-0.1,0-0.2,0v-0.4l1.3-0.6V32.8
	z"/>
<path fill="#231F20" d="M63.6,28.6c0.3-0.5,0.8-0.8,1.3-0.8c1.1,0,1.4,0.9,1.4,2.1v2.9l0.5,0.1v0.4h-1.7v-0.4l0.5-0.1v-2.9
	c0-1-0.3-1.5-0.9-1.5c-0.4,0-0.9,0.3-1.1,0.8v3.7l0.5,0.1v0.4h-1.8v-0.4l0.5-0.1v-3.3c0-0.7-0.1-0.9-0.4-0.9c0,0-0.1,0-0.1,0v-0.4
	l0.9-0.5C63.5,28,63.6,28.3,63.6,28.6z"/>
<path fill="#231F20" d="M25.4,7.1v2.2c0,0.5,0,0.7,0.1,0.9c0.1,0.2,0.4,0.4,0.6,0.4c0.3,0,0.6-0.2,0.7-0.4c0.1-0.2,0.1-0.3,0.1-0.8
	V7.1h0.4v2.2c0,0.6,0,0.8-0.2,1c-0.2,0.4-0.5,0.5-1,0.5c-0.5,0-0.9-0.2-1.1-0.7C25,10,25,9.8,25,9.3V7.1H25.4z"/>
<polygon fill="#231F20" points="30.5,10.8 30.1,10.8 28.4,7.8 28.4,10.8 28,10.8 28,7.1 28.4,7.1 30.1,10.1 30.1,7.1 30.5,7.1 "/>
<rect x="31.2" y="7.1" fill="#231F20" width="0.4" height="3.7"/>
<polygon fill="#231F20" points="33.5,10 34.5,7.1 34.9,7.1 33.6,10.8 33.3,10.8 32.1,7.1 32.5,7.1 "/>
<polygon fill="#231F20" points="36.9,8.7 36.9,9.1 35.8,9.1 35.8,10.4 37.1,10.4 37.1,10.8 35.4,10.8 35.4,7.1 36.9,7.1 36.9,7.4 
	35.8,7.4 35.8,8.7 "/>
<path fill="#231F20" d="M38.1,8.7V7.4h0.4C38.8,7.4,39,7.6,39,8c0,0.3-0.1,0.5-0.2,0.6c-0.1,0.1-0.2,0.1-0.4,0.1H38.1z M37.7,10.8
	h0.4V9.1h0.3l0.9,1.7h0.4L38.8,9c0.2-0.1,0.3-0.1,0.4-0.2c0.2-0.2,0.3-0.5,0.3-0.8c0-0.4-0.1-0.7-0.4-0.8c-0.1-0.1-0.3-0.1-0.6-0.1
	h-0.7V10.8z"/>
<path fill="#231F20" d="M41.4,7.8c-0.1-0.3-0.3-0.4-0.5-0.4c-0.3,0-0.4,0.2-0.4,0.6c0,0.3,0.1,0.4,0.5,0.7c0.3,0.2,0.4,0.3,0.5,0.5
	c0.1,0.2,0.2,0.4,0.2,0.6c0,0.6-0.4,1.1-1,1.1c-0.4,0-0.7-0.2-0.9-0.5l0.3-0.4c0.1,0.4,0.3,0.6,0.6,0.6c0.3,0,0.5-0.3,0.5-0.7
	c0-0.2-0.1-0.3-0.2-0.5c-0.1-0.1-0.1-0.1-0.4-0.3c-0.5-0.4-0.7-0.6-0.7-1.1c0-0.6,0.4-1,0.8-1c0.3,0,0.6,0.2,0.8,0.5L41.4,7.8z"/>
<rect x="42.4" y="7.1" fill="#231F20" width="0.4" height="3.7"/>
<polygon fill="#231F20" points="44.8,10.8 44.4,10.8 44.4,7.4 43.5,7.4 43.5,7.1 45.6,7.1 45.6,7.4 44.8,7.4 "/>
<polygon fill="#231F20" points="48.5,7.1 47.5,9.1 47.5,10.8 47.1,10.8 47.1,9.1 46.1,7.1 46.5,7.1 47.3,8.7 48.1,7.1 "/>
<path fill="#231F20" d="M55.5,7.4c0.6,0,1,0.6,1,1.6c0,1-0.4,1.6-1,1.6c-0.6,0-1-0.6-1-1.6C54.5,7.9,54.9,7.4,55.5,7.4z M55.5,7
	c-0.9,0-1.5,0.7-1.5,1.9c0,0.7,0.1,1.1,0.4,1.5c0.3,0.3,0.6,0.4,1,0.4c0.4,0,0.8-0.2,1-0.4C56.8,10,57,9.6,57,8.9
	C57,7.7,56.4,7,55.5,7z"/>
<polygon fill="#231F20" points="59.1,8.7 59.1,9.1 58.1,9.1 58.1,10.8 57.7,10.8 57.7,7.1 59.2,7.1 59.2,7.4 58.1,7.4 58.1,8.7 "/>
<path fill="#D00000" d="M8.9,6.8v0.5l0.3,0.1c1.3,0.3,1.5,0.3,1.5,1.9c0,0,0,8.7,0,9.4C10.3,18,3.6,6.8,3.6,6.8H0v0.5l0.3,0
	C1.7,7.4,1.9,7.4,1.9,9v11.8c0,1.4-0.2,1.5-1.4,1.6L0,22.5l0,0.1V23h5v-0.6l-0.6-0.1C3.2,22.2,3,22.2,3,20.8c0,0,0-9.3,0-9.9
	C3.4,11.4,10.7,23,10.7,23h1.1V9.1c0-1.4,0.2-1.5,1.3-1.8l0.2-0.1V6.8H8.9z"/>
<path fill="#D00000" d="M26,12.1c-1.1,0-2,0.4-2.7,1.4c0-0.6,0-7.8,0-7.8l-0.1,0.1l-3,1.1v0.5l0.1,0c0.2-0.1,0.3-0.1,0.4-0.1
	c0.5,0,0.6,0.2,0.6,1.3v10.2c0,2.2-0.1,3-0.6,4.3l0,0.1l0.6,0.3c0,0,1.2-1.4,1.3-1.6c0.7,1.1,1.6,1.6,2.9,1.6c2.5,0,4.4-2.6,4.4-5.9
	C29.9,14.3,28.3,12.1,26,12.1z M25.3,22.3c-1.5,0-2-0.8-2-3.8c0,0,0-3.7,0-3.7c0.7-0.8,1.2-1.1,1.8-1.1c1.6,0,2.9,2,2.9,4.6
	C28,20.7,26.9,22.3,25.3,22.3z"/>
<path fill="#D00000" d="M67.4,21.2L67.4,21.2c-0.4,0.5-0.5,0.6-0.7,0.6c-0.2,0-0.4-0.4-0.4-1v-5c0-1.3-0.2-2-0.9-2.5
	c-1.9-1.5-3.9-1.5-4.5-1.5c-1.9-0.1-6.7,2.6-8,5.8c0-1.8,0-1.7,0-12l-3,1.1v0.6l0.1,0c0.1,0,0.3-0.1,0.4-0.1c0.4,0,0.5,0.2,0.5,1.1
	c0,0,0,13.8,0,14c-0.2,0-1.1,0.2-1.1,0.2v0.6H54v-0.6c0,0-1-0.1-1.1-0.2c0-2.4,0.1-3,1.5-4.9c0.2,0.3,2.5,4.6,2.6,4.9
	c-0.2,0-1,0.1-1,0.1v0.7h4.5c0.4,0.2,0.8,0.2,1.2,0.2c1.2,0,2.3-0.7,2.9-1.8c0.1,1.2,0.7,1.8,1.6,1.8c0.5,0,1.2-0.5,1.9-1.5l0.1-0.1
	L67.4,21.2z M58.7,20.5c0,0.7,0.2,1.4,0.6,1.9c-0.1,0-0.2,0-0.3,0c-0.1-0.1-3.5-6.3-3.6-6.5c0.6-0.8,2.3-2.2,3.5-2.3
	c0.3,0,0.6-0.1,0.6,0c0.2,0.4,0.8,0.3,0.8,0.3c0.1,0,0.8,0.1,1.4-0.9c0,0,0-0.1,0.4-0.1c1.5,0,2.1,1.7,2.1,2.9
	C62.2,16.4,58.7,17.6,58.7,20.5z M64.4,20.6c-0.6,0.7-1.4,1.2-2,1.2c-1,0-1.7-0.8-1.7-1.9c0-2,2-2.7,3.6-3.2c0,0,0,0,0,0
	C64.4,17,64.4,20.5,64.4,20.6z"/>
<path fill="#D00000" d="M20.2,20L20.2,20c-0.9,1.3-1.6,1.8-2.6,1.8c-1.6,0-2.9-1.4-3.3-3.5c0.2-0.1,6.5-1.7,6.5-1.7l0-0.1
	c-0.3-2.7-1.8-4.3-4-4.3c-2.5,0-4.5,2.7-4.5,6.1c0,3.1,1.9,5.3,4.6,5.3c1.7,0,3-0.9,3.9-2.8l0-0.1L20.2,20z M16.8,13.1
	c1,0,1.7,0.8,1.7,2c0,0.6-0.2,1-1.3,1.3c0,0-2.3,0.6-2.9,0.7C14.2,14.6,15.2,13.1,16.8,13.1z"/>
<path fill="#D00000" d="M47.8,16.6c-2.4-1-2.5-1.2-2.5-2.1c0-0.7,0.7-1.3,1.5-1.4c0,0,0.7,0,0.8,0.3c0,0.1,0.3,1,1.4,0.8
	c0.5-0.1,0.7-0.6,0.7-0.9c0-0.6-0.8-1.3-1.9-1.3c-2.4,0-4.2,1.4-4.2,3.3c0,1.7,1.4,2.4,2.8,3c1.2,0.5,2.3,1.1,2.3,2.3
	c0,1-0.8,1.7-1.9,1.7c-1.1,0-1.4-0.5-1.5-1.3c-0.1-0.8-0.7-1-1.2-1c-0.6,0-1,0.4-1.1,1.1c0,0.2,0,0.2,0,0.3
	c-0.2,0.3-0.3,0.3-0.5,0.3c-0.2,0-0.4-0.4-0.4-1l0-4.9c0-1.3-0.2-2-0.9-2.5c-1.1-1-3.4-1.9-5.4-1.5c-1.1,0.2-2.8,1.5-3.6,3.7
	c-0.1-1.7-0.2-2.4-0.8-3.5l0-0.1l-2.1,1v0.4l0.2-0.1l0.1,0c0.6,0,0.9,0.8,0.9,2.6c0,0,0,6.2,0,6.4c-0.2,0-1.1,0.2-1.1,0.2V23h4.2
	v-0.6c0,0-1-0.1-1.2-0.2c0-0.2,0-2.5,0-2.5c0.3-5.2,1.4-5.7,1.9-6c0.4-0.3,1-0.3,1.1-0.2c0.2,0.4,0.8,0.3,0.8,0.3
	c0.1,0,0.8,0.1,1.4-0.9c0,0,0-0.1,0.4-0.1c1.5,0,2.1,1.7,2.1,2.9l0,0c0,0,0,0,0,0c-2.1,0.7-5.7,1.9-5.7,4.8c0,1.7,1.2,2.9,2.9,2.9
	c1.2,0,2.3-0.7,2.9-1.8c0.1,1.2,0.7,1.8,1.6,1.8c0.4,0,1-0.4,1.5-1.1c0.6,0.7,1.7,1.1,3.1,1.1c2.1,0,3.8-1.5,3.8-3.4
	C50.5,18.6,49.5,17.3,47.8,16.6z M40.3,20.6c-0.6,0.7-1.4,1.2-2,1.2c-1,0-1.7-0.8-1.7-1.9c0-2,2-2.7,3.6-3.2c0,0,0,0,0,0
	C40.3,17,40.3,20.5,40.3,20.6z"/>
<path fill="#FFFFFF" d="M67.4,24.5c0,0.5,0.4,0.9,0.9,0.9c0.5,0,0.9-0.4,0.9-0.9c0-0.5-0.4-0.9-0.8-0.9C67.7,23.6,67.4,24,67.4,24.5
	"/>
<path fill="#231F20" d="M69.3,24.5c0,0.6-0.5,1-1,1c-0.6,0-1-0.5-1-1c0-0.6,0.5-1.1,1.1-1.1C68.8,23.4,69.3,23.9,69.3,24.5
	 M67.4,24.5c0,0.5,0.4,0.9,0.9,0.9c0.5,0,0.9-0.4,0.9-0.9c0-0.5-0.4-0.9-0.8-0.9C67.7,23.6,67.4,24,67.4,24.5 M67.9,23.8h0.3
	c0.1,0,0.2,0,0.3,0c0.1,0,0.2,0.1,0.2,0.3c0,0.2-0.1,0.3-0.3,0.3l0.3,0.6h-0.2l-0.3-0.5H68v0.5h-0.2V23.8z M68.1,24.4
	c0.2,0,0.3-0.1,0.3-0.2c0-0.1-0.1-0.2-0.2-0.2h-0.1H68L68.1,24.4L68.1,24.4z"/>
<path fill="#FFFFFF" d="M120.4,37.3c-0.4,0-0.8-0.3-0.8-0.8c0-0.4,0.3-0.8,0.8-0.8c0.4,0,0.7,0.3,0.7,0.8
	C121.1,37,120.8,37.3,120.4,37.3z"/>
<path fill="#D00000" d="M120.4,35.6c-0.5,0-1,0.4-1,0.9c0,0.5,0.4,0.9,0.9,0.9c0.5,0,0.9-0.4,0.9-0.9
	C121.3,36.1,120.9,35.6,120.4,35.6z M120.4,37.3c-0.4,0-0.8-0.3-0.8-0.8c0-0.4,0.3-0.8,0.8-0.8c0.4,0,0.7,0.3,0.7,0.8
	C121.1,37,120.8,37.3,120.4,37.3z"/>
<g>
	<path fill="#D00000" d="M120,36h0.3c0.1,0,0.2,0,0.3,0c0.1,0,0.2,0.1,0.2,0.3c0,0.1,0,0.2-0.1,0.2c0,0-0.1,0.1-0.1,0.1l0,0l0.3,0.5
		h-0.2l-0.2-0.5h-0.1v0.5H120V36z M120.3,36.5C120.3,36.5,120.4,36.5,120.3,36.5c0.2,0,0.2-0.1,0.2-0.2c0-0.1,0-0.1-0.1-0.1
		c0,0,0,0-0.1,0h-0.1v0.3H120.3z"/>
</g>
<path fill="#D00000" d="M117.5,1.5h-12.8h-1.2v1.2V11v1.2h1.2h1.2v5.9l-10.1-16l-0.3-0.5h-0.7H83.9h-1.2v1.2V11v1.2h1.2h1.2v14.7
	h-1.2h-1.2v1.2v8.3v1.2h1.2h12.8h1.2v-1.2v-8.3v-1.2h-1.2h-1.2V21l10.1,16l0.3,0.5h0.7h10.9h1.2v-1.2v-8.3v-1.2h-1.2h-1.2V12.2h1.2
	h1.2V11V2.7V1.5H117.5z M118.2,2.7V11v0.7h-0.7h-1.7v15.6h1.7h0.7v0.7v8.3v0.7h-0.7h-10.9h-0.4l-0.2-0.3l-11-17.3v8h1.7h0.7v0.7v8.3
	v0.7h-0.7H83.9h-0.7v-0.7v-8.3v-0.7h0.7h1.7V11.7h-1.7h-0.7V11V2.7V2h0.7h10.9h0.4l0.2,0.3l11,17.3v-8h-1.7H104V11V2.7V2h0.7h12.8
	h0.7V2.7z"/>
<path fill="#FFFFFF" d="M117.5,2h-12.8H104v0.7V11v0.7h0.7h1.7v8l-11-17.3L95.2,2h-0.4H83.9h-0.7v0.7V11v0.7h0.7h1.7v15.6h-1.7h-0.7
	v0.7v8.3v0.7h0.7h12.8h0.7v-0.7v-8.3v-0.7h-0.7h-1.7v-8l11,17.3l0.2,0.3h0.4h10.9h0.7v-0.7v-8.3v-0.7h-0.7h-1.7V11.7h1.7h0.7V11V2.7
	V2H117.5z M96.7,28.1L96.7,28.1v8.3H83.9v-8.3l0,0c0,0,1.8,0,2.4,0c0-0.8,0-16.3,0-17c-0.5,0-2.4,0-2.4,0V2.7h10.9l12.3,19.4
	c0,0,0-10.5,0-11.1c-0.5,0-2.4,0-2.4,0V2.7h12.8V11c0,0-1.8,0-2.4,0c0,0.8,0,16.3,0,17c0.5,0,2.4,0,2.4,0l0,0v8.3h-10.9L94.3,16.9
	c0,0,0,10.5,0,11.1C94.9,28.1,96.7,28.1,96.7,28.1z"/>
<path fill="#D00000" d="M107.1,22.1L107.1,22.1L94.8,2.7H83.9V11c0,0,1.8,0,2.4,0c0,0.8,0,16.3,0,17l0,0c-0.5,0-2.4,0-2.4,0v8.3
	h12.8v-8.3c0,0-1.8,0-2.4,0l0,0c0-0.6,0-11.1,0-11.1l12.3,19.4h10.9v-8.3c0,0-1.8,0-2.4,0l0,0c0-0.8,0-16.3,0-17c0.5,0,2.4,0,2.4,0
	V2.7h-12.8V11c0,0,1.8,0,2.4,0C107.1,11.6,107.1,22.1,107.1,22.1z"/>
</svg>
